{
  "accessors": [
    {
      "bufferView": 2,
      "componentType": 5126,
      "count": 4,
      "max": [
        167.02890014648438,
        167.02890014648438,
        0
      ],
      "min": [
        -167.02890014648438,
        -167.02890014648438,
        0
      ],
      "type": "VEC3"
    },
    {
      "bufferView": 2,
      "byteOffset": 48,
      "componentType": 5126,
      "count": 4,
      "max": [
        0,
        0,
        1
      ],
      "min": [
        0,
        0,
        1
      ],
      "type": "VEC3"
    },
    {
      "bufferView": 1,
      "componentType": 5126,
      "count": 4,
      "max": [
        1,
        1
      ],
      "min": [
        2.9802322387695312e-08,
        2.9802322387695312e-08
      ],
      "type": "VEC2"
    },
    {
      "bufferView": 0,
      "componentType": 5125,
      "count": 6,
      "max": [
        3
      ],
      "min": [
        0
      ],
      "type": "SCALAR"
    },
    {
      "bufferView": 2,
      "byteOffset": 96,
      "componentType": 5126,
      "count": 17621,
      "max": [
        56.791450500488281,
        48.952201843261719,
        88.046577453613281
      ],
      "min": [
        -56.791450500488281,
        -48.95220947265625,
        26.327568054199219
      ],
      "type": "VEC3"
    },
    {
      "bufferView": 2,
      "byteOffset": 211548,
      "componentType": 5126,
      "count": 17621,
      "max": [
        0.99999743700027466,
        0.9999992847442627,
        0.99999946355819702
      ],
      "min": [
        -0.99999791383743286,
        -0.99999845027923584,
        -0.99999463558197021
      ],
      "type": "VEC3"
    },
    {
      "bufferView": 3,
      "componentType": 5126,
      "count": 17621,
      "max": [
        0.9999997615814209,
        0.99999725818634033,
        0.99967712163925171,
        1
      ],
      "min": [
        -0.99984109401702881,
        -0.99998575448989868,
        -0.99990224838256836,
        1
      ],
      "type": "VEC4"
    },
    {
      "bufferView": 1,
      "byteOffset": 32,
      "componentType": 5126,
      "count": 17621,
      "max": [
        5.987999439239502,
        7.9823422431945801
      ],
      "min": [
        0.012000000104308128,
        0.012000000104308128
      ],
      "type": "VEC2"
    },
    {
      "bufferView": 1,
      "byteOffset": 141000,
      "componentType": 5126,
      "count": 17621,
      "max": [
        0.98539161682128906,
        0.91763061285018921
      ],
      "min": [
        0.00050000002374872565,
        0.0053542908281087875
      ],
      "type": "VEC2"
    },
    {
      "bufferView": 1,
      "byteOffset": 281968,
      "componentType": 5126,
      "count": 17621,
      "max": [
        0.98539161682128906,
        0.91763061285018921
      ],
      "min": [
        0.00050000002374872565,
        0.0053542908281087875
      ],
      "type": "VEC2"
    },
    {
      "bufferView": 0,
      "byteOffset": 24,
      "componentType": 5125,
      "count": 98760,
      "max": [
        17620
      ],
      "min": [
        0
      ],
      "type": "SCALAR"
    },
    {
      "bufferView": 2,
      "byteOffset": 423000,
      "componentType": 5126,
      "count": 2985,
      "max": [
        39.735267639160156,
        44.407299041748047,
        34.344505310058594
      ],
      "min": [
        -39.73529052734375,
        -49.934703826904297,
        -0.07743072509765625
      ],
      "type": "VEC3"
    },
    {
      "bufferView": 2,
      "byteOffset": 458820,
      "componentType": 5126,
      "count": 2985,
      "max": [
        0.99517446756362915,
        0.99972081184387207,
        1
      ],
      "min": [
        -0.99486339092254639,
        -0.99936962127685547,
        -1
      ],
      "type": "VEC3"
    },
    {
      "bufferView": 1,
      "byteOffset": 422936,
      "componentType": 5126,
      "count": 2985,
      "max": [
        0.97426009178161621,
        0.65961027145385742
      ],
      "min": [
        -0.88999998569488525,
        -0.25208699703216553
      ],
      "type": "VEC2"
    },
    {
      "bufferView": 1,
      "byteOffset": 446816,
      "componentType": 5126,
      "count": 2985,
      "max": [
        0.9972500205039978,
        0.99950003623962402
      ],
      "min": [
        0.00050000002374872565,
        0.00050000002374872565
      ],
      "type": "VEC2"
    },
    {
      "bufferView": 1,
      "byteOffset": 470696,
      "componentType": 5126,
      "count": 2985,
      "max": [
        0.9972500205039978,
        0.99950003623962402
      ],
      "min": [
        0.00050000002374872565,
        0.00050000002374872565
      ],
      "type": "VEC2"
    },
    {
      "bufferView": 0,
      "byteOffset": 395064,
      "componentType": 5125,
      "count": 11376,
      "max": [
        2984
      ],
      "min": [
        0
      ],
      "type": "SCALAR"
    }
  ],
  "asset": {
    "extras": {
      "author": "MADE.COM (https://sketchfab.com/made-it)",
      "license": "CC-BY-NC-4.0 (http://creativecommons.org/licenses/by-nc/4.0/)",
      "source": "https://sketchfab.com/3d-models/kolton-rocking-chair-marl-grey-e12dc5f4a00d4ce7874be96055f1b81b",
      "title": "Kolton Rocking Chair, Marl Grey"
    },
    "generator": "Sketchfab-8.32.0",
    "version": "2.0"
  },
  "bufferViews": [
    {
      "buffer": 0,
      "byteLength": 440568,
      "byteOffset": 0,
      "name": "floatBufferViews",
      "target": 34963
    },
    {
      "buffer": 0,
      "byteLength": 494576,
      "byteOffset": 440568,
      "byteStride": 8,
      "name": "floatBufferViews",
      "target": 34962
    },
    {
      "buffer": 0,
      "byteLength": 494640,
      "byteOffset": 935144,
      "byteStride": 12,
      "name": "floatBufferViews",
      "target": 34962
    },
    {
      "buffer": 0,
      "byteLength": 281936,
      "byteOffset": 1429784,
      "byteStride": 16,
      "name": "floatBufferViews",
      "target": 34962
    }
  ],
  "buffers": [
    {
      "byteLength": 1711720,
      "uri": "rockingChair.bin"
    }
  ],
  "images": [
    {
      "uri": "texturesRockingChair/FLOOR_baseColor.png"
    },
    {
      "uri": "texturesRockingChair/FABRIC_baseColor.jpeg"
    },
    {
      "uri": "texturesRockingChair/FABRIC_metallicRoughness.png"
    },
    {
      "uri": "texturesRockingChair/FABRIC_normal.png"
    },
    {
      "uri": "texturesRockingChair/WOOD_baseColor.jpeg"
    }
  ],
  "materials": [
    {
      "alphaMode": "BLEND",
      "doubleSided": true,
      "emissiveFactor": [
        0,
        0,
        0
      ],
      "name": "FLOOR",
      "pbrMetallicRoughness": {
        "baseColorFactor": [
          0,
          0,
          0,
          0.70903201220000001
        ],
        "baseColorTexture": {
          "index": 0,
          "texCoord": 0
        },
        "metallicFactor": 0,
        "roughnessFactor": 1
      }
    },
    {
      "doubleSided": true,
      "emissiveFactor": [
        0,
        0,
        0
      ],
      "name": "FABRIC",
      "normalTexture": {
        "index": 3,
        "scale": 1,
        "texCoord": 0
      },
      "occlusionTexture": {
        "index": 2,
        "strength": 0.77610518289999997,
        "texCoord": 1
      },
      "pbrMetallicRoughness": {
        "baseColorFactor": [
          1,
          1,
          1,
          1
        ],
        "baseColorTexture": {
          "index": 1,
          "texCoord": 0
        },
        "metallicFactor": 0,
        "metallicRoughnessTexture": {
          "index": 2,
          "texCoord": 1
        },
        "roughnessFactor": 1
      }
    },
    {
      "doubleSided": true,
      "emissiveFactor": [
        0,
        0,
        0
      ],
      "name": "WOOD",
      "occlusionTexture": {
        "index": 2,
        "strength": 1,
        "texCoord": 1
      },
      "pbrMetallicRoughness": {
        "baseColorFactor": [
          1,
          1,
          1,
          1
        ],
        "baseColorTexture": {
          "index": 4,
          "texCoord": 0
        },
        "metallicFactor": 0,
        "metallicRoughnessTexture": {
          "index": 2,
          "texCoord": 1
        },
        "roughnessFactor": 0.61147103660000002
      }
    }
  ],
  "meshes": [
    {
      "name": "Plane001_FLOOR_0",
      "primitives": [
        {
          "attributes": {
            "NORMAL": 1,
            "POSITION": 0,
            "TEXCOORD_0": 2
          },
          "indices": 3,
          "material": 0,
          "mode": 4
        }
      ]
    },
    {
      "name": "Kolton_Rocking_Chair_FABRIC_0",
      "primitives": [
        {
          "attributes": {
            "NORMAL": 5,
            "POSITION": 4,
            "TANGENT": 6,
            "TEXCOORD_0": 7,
            "TEXCOORD_1": 8,
            "TEXCOORD_2": 9
          },
          "indices": 10,
          "material": 1,
          "mode": 4
        }
      ]
    },
    {
      "name": "Kolton_Rocking_Chair_WOOD_0",
      "primitives": [
        {
          "attributes": {
            "NORMAL": 12,
            "POSITION": 11,
            "TEXCOORD_0": 13,
            "TEXCOORD_1": 14,
            "TEXCOORD_2": 15
          },
          "indices": 16,
          "material": 2,
          "mode": 4
        }
      ]
    }
  ],
  "nodes": [
    {
      "children": [
        1
      ],
      "name": "RootNode (gltf orientation matrix)",
      "rotation": [
        -0.70710678118654746,
        -0,
        -0,
        0.70710678118654757
      ]
    },
    {
      "children": [
        2
      ],
      "matrix": [
        0.0089962398633360863,
        0,
        0,
        0,
        0,
        0.0089962398633360863,
        0,
        0,
        0,
        0,
        0.0089962398633360863,
        0,
        0,
        0,
        0,
        1
      ],
      "name": "RootNode (model correction matrix)"
    },
    {
      "children": [
        3
      ],
      "matrix": [
        1,
        0,
        0,
        0,
        0,
        0,
        1,
        0,
        0,
        -1,
        0,
        0,
        0,
        0,
        0,
        1
      ],
      "name": "95b0dd2e14a942d483d1ba719ad9e9d6.fbx"
    },
    {
      "children": [
        4,
        6
      ],
      "name": "RootNode"
    },
    {
      "children": [
        5
      ],
      "matrix": [
        1,
        0,
        0,
        0,
        0,
        2.2204460492503131e-16,
        -1,
        0,
        0,
        1,
        2.2204460492503131e-16,
        0,
        0,
        0,
        0,
        1
      ],
      "name": "Plane001"
    },
    {
      "mesh": 0,
      "name": "Plane001_FLOOR_0"
    },
    {
      "children": [
        7,
        8
      ],
      "matrix": [
        1,
        0,
        0,
        0,
        0,
        2.2204460492503131e-16,
        -1,
        0,
        0,
        1,
        2.2204460492503131e-16,
        0,
        3.0517578125e-05,
        0,
        0,
        1
      ],
      "name": "Kolton_Rocking_Chair"
    },
    {
      "mesh": 1,
      "name": "Kolton_Rocking_Chair_FABRIC_0"
    },
    {
      "mesh": 2,
      "name": "Kolton_Rocking_Chair_WOOD_0"
    }
  ],
  "samplers": [
    {
      "magFilter": 9729,
      "minFilter": 9987,
      "wrapS": 10497,
      "wrapT": 10497
    }
  ],
  "scene": 0,
  "scenes": [
    {
      "name": "OSG_Scene",
      "nodes": [
        0
      ]
    }
  ],
  "textures": [
    {
      "sampler": 0,
      "source": 0
    },
    {
      "sampler": 0,
      "source": 1
    },
    {
      "sampler": 0,
      "source": 2
    },
    {
      "sampler": 0,
      "source": 3
    },
    {
      "sampler": 0,
      "source": 4
    }
  ]
}

